<?xml version="1.0" encoding="utf-8"?>
<!-- Generator: Adobe Illustrator 27.8.1, SVG Export Plug-In . SVG Version: 6.00 Build 0)  -->
<svg version="1.1" id="Layer_1" xmlns="http://www.w3.org/2000/svg" xmlns:xlink="http://www.w3.org/1999/xlink" x="0px" y="0px"
	 viewBox="0 0 472.01 83" style="enable-background:new 0 0 472.01 83;" xml:space="preserve">
<style type="text/css">
	.st0{fill:#FFFFFF;}
	.st1{fill:#670053;}
	.st2{fill:#AD208E;}
	.st3{fill:#395524;}
	.st4{fill:#A0CF67;}
	.st5{fill:#726700;}
	.st6{fill:#FFE800;}
	.st7{fill:#634300;}
	.st8{fill:#FBB034;}
	.st9{enable-background:new    ;}
	.st10{clip-path:url(#SVGID_00000059300886460912689670000015322962200897069242_);enable-background:new    ;}
	.st11{fill:#6A0056;}
	.st12{clip-path:url(#SVGID_00000129914081818805154740000007677267815506737562_);enable-background:new    ;}
	.st13{clip-path:url(#SVGID_00000167397357002866402120000013112255021408322751_);enable-background:new    ;}
	.st14{fill:#414042;}
</style>
<g>
	<path id="Outline" class="st0" d="M460.75,45.45h-0.01c-0.95,0-1.85,0.24-2.64,0.67l-0.17-6.97c-0.03-1.03-0.57-1.98-1.46-2.51
		c-0.45-0.27-0.94-0.41-1.45-0.43l-0.22-6.09c0-0.05-0.01-0.1-0.01-0.15c0.39-0.14,0.74-0.36,1.05-0.64l2.37-2.22
		c0.58-0.55,0.92-1.3,0.95-2.1l0.32-10.16c0.03-0.87-0.32-1.71-0.96-2.3c-0.64-0.59-1.5-0.88-2.36-0.79l-12.89,1.33l0.08-0.66
		c0.19-1.51-0.77-2.92-2.24-3.3c-2.15-0.56-3.89-0.83-5.33-0.83c-0.01,0-0.02,0-0.03,0c-4.22,0.03-8.06,1.14-11.45,3.32l0.04-0.28
		c0.12-0.84-0.12-1.7-0.67-2.35c-0.54-0.65-1.34-1.05-2.19-1.08l-10.13-0.43c-0.81-0.04-1.6,0.26-2.19,0.81l-2.37,2.22
		c-0.49,0.46-0.82,1.08-0.92,1.75l-0.34,2.21l-0.25-0.92c-0.4-1.48-1.84-2.42-3.35-2.19l-9.35,1.38l0.13-4.09
		c0.03-0.87-0.32-1.71-0.96-2.3c-0.64-0.59-1.5-0.88-2.36-0.79L370.9,7.43c-0.66,0.07-1.27,0.35-1.75,0.8l-1.82,1.71
		c-1.13-0.46-2.35-0.69-3.63-0.7c-2.32,0.02-4.52,0.87-6.21,2.41c-0.04,0.03-0.07,0.06-0.11,0.1l-0.05,0.04
		c-1.32-1.15-2.99-2.12-5-2.88c-2.88-1.06-5.84-1.6-8.81-1.6c-0.03,0-0.05,0-0.08,0c-0.9,0-1.81,0.05-2.72,0.15
		c-3.67,0.41-7.3,1.55-10.82,3.39c-0.24,0.13-0.47,0.29-0.67,0.47l-1.25,1.17l-9.3,0.96c-0.93-2.32-2.5-4.18-4.68-5.56
		c-2.75-1.78-6.32-2.69-10.6-2.69c-0.03,0-0.06,0-0.09,0c0,0-0.12,0-0.13,0c-4.06,0.03-7.13,0.61-9.38,1.77
		c-0.25,0.13-0.48,0.29-0.68,0.48l-2.36,2.22c-0.14,0.13-0.26,0.27-0.37,0.42l-0.46-0.27c-1.16-0.68-2.62-0.52-3.6,0.4l-2.37,2.22
		c-0.24,0.23-0.45,0.5-0.61,0.79l-3.01,5.72l-2.05-6.55c-0.3-0.96-1.06-1.71-2.03-1.99c-0.97-0.28-2.01-0.07-2.78,0.58l-1.72,1.44
		l0.31-8c0.03-0.87-0.31-1.7-0.93-2.3c-0.63-0.6-1.48-0.89-2.34-0.82l-25.27,2.21c-0.67,0.06-1.31,0.34-1.8,0.81l-2.37,2.22
		c-0.62,0.58-0.96,1.39-0.95,2.24l0.31,25.43l-0.2-3.2c-0.05-0.82-0.44-1.59-1.07-2.12c-0.62-0.52-1.41-0.77-2.22-0.69
		c0.19-0.31,0.33-0.66,0.4-1.02l2.09-10.84c0.3-1.57-0.67-3.1-2.22-3.49c-4.04-1.02-6.74-1.5-8.51-1.5c-0.01,0-0.02,0-0.03,0
		c-2.53,0.02-4.91,0.42-7.12,1.21c0.05-0.71-0.15-1.43-0.58-2.01c-0.51-0.7-1.29-1.14-2.15-1.22l-10.09-0.95
		c-0.86-0.08-1.72,0.21-2.35,0.8l-2.37,2.22c-0.21,0.2-0.4,0.43-0.54,0.68l-0.72-3.41c-0.32-1.5-1.71-2.52-3.24-2.38l-11.31,1.1
		c-0.66,0.06-1.29,0.35-1.77,0.8l-2.37,2.22c-0.38,0.35-0.66,0.8-0.81,1.29c-1.42-0.85-3.08-1.35-4.87-1.33
		c-1.46,0.01-2.88,0.35-4.15,0.99l0.01-0.46c0.01-0.85-0.34-1.67-0.97-2.25s-1.47-0.86-2.32-0.79l-10.09,0.91
		c-0.67,0.06-1.3,0.34-1.79,0.81l-2.37,2.22c-0.25,0.24-0.46,0.51-0.62,0.82l-1.09-2.51c-0.6-1.39-2.14-2.12-3.6-1.7l-10.87,3.13
		c-0.46,0.13-0.88,0.37-1.23,0.7l-2.04,1.91c-3.01-1.19-6.08-1.77-9.42-1.76c-3.68,0.02-7.42,0.77-11.11,2.22
		c-0.11,0.04-0.22,0.09-0.33,0.15l-1.29-5.36c-0.35-1.46-1.72-2.44-3.22-2.29l-8.3,0.81c-0.66,0.06-1.29,0.35-1.77,0.8l-2.37,2.22
		c-0.37,0.34-0.64,0.77-0.8,1.25l-0.93,2.8c-0.16-0.45-0.43-0.86-0.78-1.19c-0.64-0.59-1.5-0.89-2.36-0.79l-18.48,1.9
		c-0.66,0.07-1.27,0.35-1.76,0.8l-2.37,2.22c-0.62,0.58-0.96,1.39-0.95,2.23l0.18,15.09l-2.55,1.31l0.31-24.83
		c0.01-0.89-0.37-1.73-1.04-2.31c-0.67-0.58-1.56-0.84-2.43-0.71l-11.27,1.72c-0.6,0.09-1.17,0.36-1.61,0.78l-2.37,2.22
		c-0.65,0.61-0.99,1.47-0.95,2.35l0.34,6.81l-6.99,0.72c-0.42-0.21-0.89-0.32-1.37-0.31l-5.08,0.09c-0.75,0.01-1.47,0.3-2.01,0.82
		l-0.01,0.01c-0.17-0.27-0.37-0.52-0.62-0.73c-0.66-0.57-1.54-0.82-2.4-0.69l-4.39,0.66c-0.57-0.49-1.31-0.75-2.07-0.72L10.97,22.9
		c-0.73,0.03-1.42,0.32-1.95,0.82l-2.37,2.22c-0.61,0.57-0.96,1.38-0.95,2.21l0.04,7.99c0,0.86,0.38,1.68,1.02,2.25
		c0.65,0.57,1.5,0.83,2.36,0.73l1.52-0.19l-1.16,7.86c-0.14,0.93,0.17,1.87,0.83,2.55c0.57,0.59,1.35,0.91,2.16,0.91
		c0.12,0,0.25-0.01,0.37-0.02l6.32-0.78c0.6-0.07,1.16-0.33,1.62-0.72c0.08,0.1,0.16,0.19,0.25,0.28c0.58,0.56,1.36,0.88,2.16,0.84
		l4.68-0.1c0.55-0.01,1.09-0.18,1.55-0.47c0.55,0.55,1.3,0.88,2.13,0.88l5.3,0.01c0,0,0,0,0,0c0.36,0,0.72-0.07,1.05-0.19
		c0.48,0.18,1.01,0.23,1.53,0.14l8.24-1.37c0.58-0.1,1.11-0.36,1.54-0.75l0.32,6.24c0.04,0.83,0.43,1.61,1.06,2.15
		c0.63,0.54,1.47,0.79,2.29,0.7l16.83-1.91l0.03,2.91c0.01,0.88,0.4,1.71,1.08,2.28c0.55,0.46,1.23,0.71,1.94,0.71
		c0.16,0,0.33-0.01,0.49-0.04l16.8-2.77c0.59-0.1,1.14-0.37,1.57-0.78l2.37-2.22c0.08-0.08,0.16-0.16,0.23-0.24l0.72,0.1
		c0.91,0.12,1.82-0.16,2.49-0.79l2.31-2.17l0,0.29c-0.01,0.93,0.42,1.81,1.15,2.39c0.73,0.57,1.69,0.78,2.59,0.56l7.07-1.75
		l-0.02,2.93c-0.01,0.95,0.44,1.84,1.19,2.42c0.75,0.57,1.73,0.76,2.65,0.5l9.38-2.65c0.47-0.13,0.89-0.37,1.25-0.7l1.87-1.76
		c0.63,1.1,1.1,2.21,1.4,3.31c0.27,1,1.04,1.8,2.03,2.1c1,0.3,2.08,0.07,2.86-0.61l5.2-4.54l8.34-1.18
		c0.62-0.09,1.19-0.36,1.64-0.79l2-1.88l2.12,5.16c0.57,1.39,2.08,2.15,3.54,1.77l9.52-2.46l-0.04,1.06
		c-0.07,1.59,1.11,2.95,2.69,3.12l11.17,1.21c0.88,0.1,1.75-0.2,2.39-0.8l2.37-2.22c0.62-0.58,0.96-1.39,0.95-2.23l-0.05-5.05
		l1.38,0.06c0.82,0.03,1.6-0.26,2.19-0.81l1.77-1.67l1.14,5.92c0.29,1.5,1.65,2.55,3.17,2.44l11.87-0.82
		c0.69-0.05,1.35-0.33,1.86-0.81l0.26-0.24c3.14,3.41,6.91,5.15,11.26,5.11c2.89-0.03,5.97-1.05,9.11-3.01
		c1.82-1.1,3.53-2.4,5.08-3.86l2.37-2.22c0,0,0,0,0,0c0.03-0.02,0.05-0.05,0.08-0.07c0.77-0.73,1.51-1.51,2.21-2.31
		c0.06-0.07,0.1-0.15,0.16-0.22l0.05,4.41c0.01,0.87,0.39,1.69,1.05,2.25c0.66,0.56,1.52,0.82,2.38,0.7l16.49-2.31
		c-0.23,0.73-0.18,1.53,0.17,2.23c0.43,0.89,1.28,1.51,2.26,1.66l12.39,1.88c0.92,0.14,1.84-0.15,2.52-0.78l2.37-2.22
		c0.07-0.07,0.15-0.14,0.21-0.22l6.27,15.83c0.32,0.8,0.96,1.43,1.77,1.73c0.33,0.12,0.68,0.18,1.03,0.18c0.5,0,0.99-0.12,1.44-0.37
		l11.33-6.15c0.23-0.12,0.44-0.28,0.63-0.45l2.36-2.22c0.99-0.93,1.24-2.42,0.59-3.62l-3.55-6.62l1.62-0.11
		c0.69-0.05,1.35-0.33,1.85-0.81l2.37-2.22c0.65-0.61,1-1.49,0.95-2.38l-0.5-8.27c0.87-0.68,1.66-1.36,2.38-2.03l0.23,19.14
		c0.01,0.88,0.4,1.71,1.08,2.28c0.67,0.57,1.56,0.81,2.43,0.66l16.79-2.78c0.59-0.1,1.14-0.37,1.57-0.78l1.01-0.95
		c0.43,0.03,0.86-0.05,1.27-0.21l9.04-3.61c0.35-0.14,0.67-0.34,0.95-0.6l2.07-1.94c0.67,0.96,1.19,1.93,1.57,2.92
		c0.36,0.94,1.17,1.63,2.14,1.85c0.98,0.23,2-0.06,2.73-0.74l0.11-0.11l-0.07,1.89c-0.06,1.58,1.12,2.94,2.69,3.11l11.12,1.21
		c0.88,0.1,1.75-0.2,2.39-0.8l2.37-2.22c0.62-0.58,0.96-1.4,0.95-2.25l-0.01-0.82l8.79-1.45l-0.11,0.69
		c-0.13,0.87,0.12,1.76,0.7,2.43s1.39,1.07,2.3,1.04l9.32-0.07c0.76-0.01,1.49-0.3,2.04-0.82l1.84-1.73l1.43,5.74
		c0.37,1.47,1.77,2.44,3.28,2.26l11.79-1.41c0.64-0.08,1.24-0.36,1.71-0.8l2.37-2.22c0.5-0.47,0.83-1.1,0.92-1.78l0.23-1.64
		c2.9,2.02,6.24,3.04,9.97,3.04c0.02,0,0.04,0,0.07,0c1.54-0.01,3.08-0.25,4.61-0.72l0.01,1.02c0.01,0.88,0.4,1.71,1.08,2.28
		c0.67,0.57,1.56,0.8,2.43,0.66l16.79-2.78c0.59-0.1,1.14-0.37,1.57-0.78l1.58-1.49c1.03,1.2,2.54,1.97,4.24,1.97
		c3.07,0,5.57-2.52,5.57-5.62C466.31,47.97,463.82,45.45,460.75,45.45z"/>
	<g id="Logo">
		<g>
			<g>
				<polygon class="st1" points="50.01,30.39 44.83,30.69 42.47,32.91 47.65,32.62 				"/>
				<polygon class="st1" points="48,36.41 44.31,36.39 41.94,38.61 45.64,38.63 				"/>
				<polygon class="st1" points="41.11,26.35 38.74,28.57 38.96,47.14 47.2,45.78 49.56,43.56 41.32,44.92 				"/>
			</g>
			<g>
				<polygon class="st2" points="50.16,25.41 50.01,30.39 44.83,30.69 44.94,33.91 47.87,33 48,36.41 44.31,36.39 44.28,39.94 
					49.41,37.4 49.56,43.56 41.32,44.92 41.11,26.35 				"/>
			</g>
		</g>
		<g>
			<g>
				<polygon class="st3" points="92.87,26.19 82.32,26.8 79.95,29.02 90.5,28.41 				"/>
				<polygon class="st3" points="88.77,38.47 81.25,38.43 78.89,40.65 86.4,40.69 				"/>
				<polygon class="st3" points="74.7,17.93 72.34,20.15 72.79,58.06 89.58,55.28 91.95,53.06 75.15,55.83 				"/>
			</g>
			<g>
				<polygon class="st4" points="93.19,16.03 92.87,26.19 82.32,26.8 82.53,33.36 88.51,31.5 88.77,38.47 81.25,38.43 81.16,45.67 
					91.63,40.5 91.95,53.06 75.15,55.83 74.7,17.93 				"/>
			</g>
		</g>
		<g>
			<g>
				<polygon class="st5" points="159.44,11.8 157.07,14.02 156.26,32.22 158.63,30 				"/>
				<polygon class="st5" points="157.63,52.6 148.76,31 146.4,33.22 155.27,54.82 166.75,51.86 169.12,49.64 				"/>
				<polygon class="st5" points="139.67,14.46 137.3,16.68 137.07,51.79 146.3,50.49 148.66,48.27 139.44,49.57 				"/>
			</g>
			<g>
				<polygon class="st6" points="169.53,10.88 169.12,49.64 157.63,52.6 148.76,31 148.66,48.27 139.44,49.57 139.67,14.46 
					150.54,11.33 158.63,30 159.44,11.8 				"/>
			</g>
		</g>
		<g>
			<g>
				<polygon class="st7" points="206.76,11.39 204.39,13.61 199.95,31.33 202.32,29.11 				"/>
				<polygon class="st7" points="196.82,51.09 192.43,28.29 190.06,30.51 194.46,53.32 206.32,52.5 208.69,50.28 				"/>
				<polygon class="st7" points="186.8,10.41 184.44,12.63 177.2,47.03 186.52,47.43 188.88,45.21 179.56,44.81 				"/>
			</g>
			<g>
				<polygon class="st8" points="198.11,9.32 202.32,29.11 206.76,11.39 216.85,12.33 208.69,50.28 196.82,51.09 192.43,28.29 
					188.88,45.21 179.56,44.81 186.8,10.41 				"/>
			</g>
		</g>
		<g>
			<g>
				<polygon class="st4" points="171.94,28.37 181.76,28.53 182.05,55.46 170.87,54.25 				"/>
			</g>
			<polygon class="st3" points="170.87,54.25 171.94,28.37 169.57,30.59 168.51,56.47 179.68,57.69 182.05,55.46 			"/>
		</g>
		<g>
			<g class="st9">
				<defs>
					<path id="SVGID_1_" class="st9" d="M181.1,23.52l-2.37,2.22c-1.1,1.03-2.61,1.68-4.28,1.69c-3.42,0.01-6.2-2.61-6.24-5.86
						c-0.02-1.67,0.69-3.18,1.84-4.26l2.37-2.22c-1.15,1.08-1.86,2.59-1.84,4.26c0.04,3.25,2.82,5.87,6.24,5.86
						C178.49,25.2,180,24.55,181.1,23.52z"/>
				</defs>
				<clipPath id="SVGID_00000054953744957172241410000012762697637210532514_">
					<use xlink:href="#SVGID_1_"  style="overflow:visible;"/>
				</clipPath>
				<g style="clip-path:url(#SVGID_00000054953744957172241410000012762697637210532514_);enable-background:new    ;">
					<path class="st11" d="M181.1,23.52l-2.37,2.22c-1.1,1.03-2.61,1.68-4.28,1.69c-3.42,0.01-6.2-2.61-6.24-5.86
						c-0.02-1.67,0.69-3.18,1.84-4.26l2.37-2.22c-1.15,1.08-1.86,2.59-1.84,4.26c0.04,3.25,2.82,5.87,6.24,5.86
						C178.49,25.2,180,24.55,181.1,23.52"/>
				</g>
			</g>
			<g>
				<path class="st2" d="M176.71,13.41c3.43-0.01,6.2,2.61,6.24,5.86c0.03,3.25-2.71,5.91-6.12,5.94c-3.42,0.01-6.2-2.61-6.24-5.86
					C170.55,16.09,173.3,13.43,176.71,13.41z"/>
			</g>
		</g>
		<g>
			<g>
				<polygon class="st3" points="411.21,10.47 408.84,12.7 405.3,36.08 407.66,33.86 				"/>
				<polygon class="st3" points="403.39,56.09 397.75,33.54 395.38,35.77 401.02,58.31 412.82,56.9 415.18,54.68 				"/>
				<polygon class="st3" points="391.15,15.97 388.79,18.19 383.44,52.9 392.76,52.84 395.12,50.62 385.81,50.68 				"/>
			</g>
			<g>
				<polygon class="st4" points="411.21,10.47 421.34,10.91 415.18,54.68 403.39,56.09 397.75,33.54 395.12,50.62 385.81,50.68 
					391.15,15.97 402.37,14.32 407.66,33.86 				"/>
			</g>
		</g>
		<g>
			<g>
				<polygon class="st5" points="389.37,18.7 378.81,19.3 376.44,21.53 387,20.92 				"/>
				<polygon class="st5" points="385.27,30.98 377.75,30.94 375.39,33.16 382.91,33.2 				"/>
				<polygon class="st5" points="371.21,10.44 368.85,12.66 369.3,50.56 386.08,47.78 388.45,45.56 371.66,48.34 				"/>
			</g>
			<g>
				<polygon class="st6" points="389.69,8.53 389.37,18.7 378.81,19.3 379.03,25.87 385.02,24.02 385.27,30.98 377.75,30.94 
					377.67,38.18 388.14,33 388.45,45.56 371.66,48.34 371.21,10.44 				"/>
			</g>
		</g>
		<g>
			<g>
				<polygon class="st1" points="288.41,12.43 286.05,14.66 277.74,30.44 280.1,28.22 				"/>
				<polygon class="st1" points="290.24,67.96 279.47,40.76 277.1,42.98 287.87,70.18 299.2,64.03 301.57,61.8 				"/>
				<polygon class="st1" points="273.68,34.62 264.67,22.33 262.31,24.55 271.31,36.84 261.76,53.83 274.16,55.71 276.52,53.48 
					264.13,51.61 				"/>
			</g>
			<g>
				<polygon class="st2" points="288.41,12.43 298.07,18.14 286.31,33.33 301.57,61.8 290.24,67.96 279.47,40.76 276.52,53.48 
					264.13,51.61 273.68,34.62 264.67,22.33 275.44,13.32 280.1,28.22 				"/>
			</g>
		</g>
		<g>
			<g>
				<polygon class="st7" points="268.63,15.98 254.2,16.69 251.84,18.92 266.27,18.2 				"/>
				<polygon class="st7" points="263.01,30.08 252.72,30.05 250.36,32.27 260.64,32.3 				"/>
				<polygon class="st7" points="243.82,6.53 241.45,8.75 241.98,52.24 264.95,49.03 267.32,46.81 244.35,50.02 				"/>
			</g>
			<g>
				<polygon class="st8" points="269.09,4.32 268.63,15.98 254.2,16.69 254.49,24.23 262.67,22.09 263.01,30.08 252.72,30.05 
					252.59,38.35 266.92,32.39 267.32,46.81 244.35,50.02 243.82,6.53 				"/>
			</g>
		</g>
		<path d="M460.25,50.97h0.33c0.38,0,0.7-0.14,0.7-0.5c0-0.25-0.18-0.51-0.7-0.51c-0.15,0-0.25,0.01-0.33,0.02V50.97z M460.25,52.57
			h-0.46v-2.89c0.24-0.03,0.47-0.07,0.82-0.07c0.44,0,0.73,0.09,0.9,0.22c0.17,0.13,0.27,0.32,0.27,0.6c0,0.38-0.25,0.61-0.57,0.7
			v0.02c0.25,0.04,0.43,0.27,0.48,0.7c0.07,0.45,0.14,0.62,0.19,0.72h-0.49c-0.07-0.09-0.14-0.36-0.2-0.74
			c-0.07-0.37-0.25-0.51-0.62-0.51h-0.32V52.57z M460.74,48.87c-1.14,0-2.08,0.98-2.08,2.19c0,1.23,0.93,2.2,2.09,2.2
			c1.15,0.01,2.07-0.97,2.07-2.19c0-1.22-0.92-2.2-2.07-2.2H460.74z M460.75,48.47c1.42,0,2.55,1.15,2.55,2.59
			c0,1.46-1.13,2.61-2.56,2.61c-1.42,0-2.57-1.14-2.57-2.61c0-1.44,1.15-2.59,2.57-2.59H460.75z"/>
		<g>
			<g>
				<polygon class="st7" points="107.9,32.09 105.95,23.22 103.58,25.44 105.53,34.32 				"/>
				<polygon class="st7" points="105.14,50.26 105.2,40.76 100.38,39.95 98.01,42.17 102.83,42.98 102.77,52.48 116.96,48.97 
					119.32,46.75 				"/>
				<polygon class="st7" points="102.18,10.94 99.82,13.16 87.3,50.99 95.38,52.14 97.75,49.92 89.66,48.77 				"/>
			</g>
			<g>
				<path class="st8" d="M119.32,46.75l-14.18,3.51l0.06-9.5l-4.82-0.81l-2.63,9.97l-8.08-1.14l12.52-37.83l8.3-0.81L119.32,46.75z
					 M102.5,31.79l5.4,0.31l-1.95-8.87L102.5,31.79"/>
			</g>
		</g>
		<g class="st9">
			<defs>
				<path id="SVGID_00000129204756301373711670000016772504278019648159_" class="st9" d="M226.9,42.49l-2.37,2.22
					c0.27-0.26,0.53-0.55,0.77-0.89l2.37-2.22C227.43,41.94,227.18,42.24,226.9,42.49z"/>
			</defs>
			<clipPath id="SVGID_00000116196685586275601030000007066909792519549359_">
				<use xlink:href="#SVGID_00000129204756301373711670000016772504278019648159_"  style="overflow:visible;"/>
			</clipPath>
			<g style="clip-path:url(#SVGID_00000116196685586275601030000007066909792519549359_);enable-background:new    ;">
				<path class="st11" d="M226.9,42.49l-2.37,2.22c0.27-0.26,0.53-0.55,0.77-0.89l2.37-2.22C227.43,41.94,227.18,42.24,226.9,42.49"
					/>
			</g>
		</g>
		<g>
			<g>
				<path class="st7" d="M345.54,24.1c-0.01,1.25-0.55,2.2-1.33,2.94l2.37-2.22c0.78-0.73,1.32-1.69,1.33-2.94
					c0.01-1.89-1.4-2.43-3.06-2.43c-1.31,0-2.73,0.34-3.74,0.64c-0.79,0.23-1.33,0.45-1.4,0.47l-2.37,2.22
					c0.14-0.05,2.81-1.1,5.14-1.11C344.14,21.67,345.55,22.22,345.54,24.1z"/>
				<path class="st7" d="M350.98,30.95l2.37-2.22c-1.32,1.24-2.9,2.43-4.73,3.57l-2.37,2.22C348.08,33.38,349.66,32.19,350.98,30.95
					z"/>
				<path class="st7" d="M342.87,38.04l-2.37,2.22c4.92,3.21,8.14,6.78,9.67,10.73l2.37-2.22
					C351.01,44.82,347.79,41.25,342.87,38.04z"/>
				<polygon class="st7" points="331.32,13.53 328.95,15.75 332.61,52.51 341.64,48.9 344.01,46.68 334.97,50.29 				"/>
			</g>
			<g>
				<path class="st8" d="M348.62,32.3c4.3,0.71,8.22,3.39,11.75,8.03l-7.83,8.44c-1.53-3.95-4.75-7.52-9.67-10.73l1.14,8.64
					l-9.04,3.61l-3.66-36.76c3.19-1.67,6.44-2.69,9.76-3.07c0.8-0.09,1.6-0.13,2.39-0.14c2.65-0.01,5.25,0.46,7.83,1.41
					c4.09,1.57,6.32,3.94,6.69,7.12c0.28,2.38-0.47,4.77-2.22,7.18C354.1,28.28,351.73,30.37,348.62,32.3z M340.45,27.16
					c0.37-0.04,7.42-0.74,7.46-5.28c0.01-1.89-1.4-2.43-3.06-2.43c-2.33,0.01-5,1.05-5.14,1.11L340.45,27.16"/>
			</g>
		</g>
		<g>
			<path class="st11" d="M230.32,28.84l2.37-2.22c-1.36-0.63-3.22-0.94-5.6-0.94c-1.6,0.01-3.01,0.6-4.26,1.77l-2.37,2.22
				c1.25-1.17,2.66-1.76,4.26-1.77C227.1,27.9,228.96,28.21,230.32,28.84z"/>
			<polygon class="st11" points="225.31,43.83 227.68,41.61 226.79,32.2 224.43,34.43 			"/>
			<path class="st11" d="M229.82,51.75c-2.73,1.7-5.26,2.56-7.58,2.58c-3.99,0.01-7.36-1.83-10.16-5.52
				c-2.69-3.55-4.05-7.73-4.1-12.48c-0.06-6.33,1.72-11.56,5.34-15.7c0.45-0.52,0.92-1.01,1.41-1.46l0,0l0,0l-2.37,2.22
				c-0.48,0.45-0.95,0.94-1.41,1.46c-3.62,4.14-5.4,9.37-5.34,15.7c0.05,4.76,1.42,8.93,4.1,12.48c2.8,3.69,6.17,5.53,10.16,5.52
				c2.32-0.02,4.85-0.87,7.58-2.58c1.64-0.99,3.17-2.15,4.58-3.48l2.37-2.22C232.99,49.6,231.46,50.76,229.82,51.75z"/>
		</g>
		<g>
			<polygon class="st1" points="357.66,52.86 358.59,27.25 356.22,29.47 355.29,55.08 366.41,56.3 368.78,54.08 			"/>
			<g>
				<polygon class="st2" points="358.59,27.25 368.36,27.4 368.78,54.08 357.66,52.86 				"/>
			</g>
		</g>
		<g>
			<path class="st2" d="M227,14.37c1.48,0,4.06,0.47,7.78,1.41l-2.09,10.84c-1.36-0.63-3.22-0.94-5.6-0.94
				c-2.36,0.02-4.3,1.28-5.92,3.81c-1.49,2.31-2.23,4.77-2.2,7.38c0.03,1.68,0.44,3.18,1.26,4.52c0.95,1.55,2.17,2.32,3.68,2.32
				c1.51-0.01,2.77-0.71,3.78-2.11l-0.88-9.4l8.74-1l0.94,14.91c-1.95,2.25-4.17,4.13-6.65,5.64c-2.73,1.7-5.26,2.56-7.58,2.58
				c-3.99,0.01-7.36-1.83-10.16-5.52c-2.69-3.55-4.05-7.73-4.1-12.48c-0.06-6.33,1.72-11.56,5.34-15.7
				C216.94,16.5,221.5,14.41,227,14.37z"/>
		</g>
		<g>
			<g class="st9">
				<defs>
					<path id="SVGID_00000047043505930514384410000009226481327606189965_" class="st9" d="M368.11,22.38l-2.37,2.22
						c-1.1,1.03-2.61,1.68-4.27,1.69c-3.43,0.01-6.2-2.61-6.24-5.85c-0.02-1.67,0.69-3.18,1.84-4.26l2.37-2.22
						c-1.15,1.08-1.86,2.59-1.84,4.26c0.03,3.24,2.81,5.86,6.24,5.85C365.51,24.05,367.01,23.41,368.11,22.38z"/>
				</defs>
				<use xlink:href="#SVGID_00000047043505930514384410000009226481327606189965_"  style="overflow:visible;fill:#395524;"/>
				<clipPath id="SVGID_00000010277868673807208440000004564177133856236221_">
					<use xlink:href="#SVGID_00000047043505930514384410000009226481327606189965_"  style="overflow:visible;"/>
				</clipPath>
				<g style="clip-path:url(#SVGID_00000010277868673807208440000004564177133856236221_);enable-background:new    ;">
					<path class="st3" d="M368.11,22.38l-2.37,2.22c-1.1,1.03-2.61,1.68-4.27,1.69c-3.43,0.01-6.2-2.61-6.24-5.85
						c-0.02-1.67,0.69-3.18,1.84-4.26l2.37-2.22c-1.15,1.08-1.86,2.59-1.84,4.26c0.03,3.24,2.81,5.86,6.24,5.85
						C365.51,24.05,367.01,23.41,368.11,22.38"/>
				</g>
			</g>
			<g>
				<path class="st4" d="M363.72,12.26c3.42-0.01,6.2,2.61,6.23,5.86c0.03,3.26-2.71,5.92-6.11,5.94c-3.43,0.01-6.2-2.61-6.24-5.85
					C357.57,14.95,360.31,12.29,363.72,12.26z"/>
			</g>
		</g>
		<g>
			<g>
				<path class="st1" d="M128.55,29.88c-0.11,1.01-0.57,1.79-1.21,2.39l2.37-2.22c0.64-0.6,1.1-1.38,1.21-2.39
					c0.25-2.23-1.7-2.79-3.74-2.78c-2.09,0.01-4.15,0.57-4.26,0.6l-2.37,2.22c0.11-0.03,2.18-0.6,4.26-0.6
					C126.85,27.09,128.8,27.65,128.55,29.88z"/>
				<path class="st1" d="M135.79,35.67l2.37-2.22c-1.76,1.65-4.02,3.15-6.77,4.48l-2.37,2.22
					C131.77,38.81,134.02,37.32,135.79,35.67z"/>
				<path class="st1" d="M133.56,54.7c-1.1-4.08-3.93-7.97-8.49-11.67l-2.37,2.22c4.56,3.7,7.39,7.59,8.49,11.67l8.68-7.57
					l2.37-2.22L133.56,54.7z"/>
				<polygon class="st1" points="116.14,17.44 113.77,19.66 113.56,56.6 122.94,53.96 125.31,51.73 115.93,54.38 				"/>
			</g>
			<g>
				<path class="st2" d="M131.38,37.92c4.2,1.16,7.82,4.22,10.86,9.21l-8.68,7.57c-1.1-4.08-3.93-7.97-8.49-11.67l0.25,8.71
					l-9.38,2.65l0.21-36.94c3.35-1.32,6.69-2,10.02-2.01c3.55-0.01,6.86,0.76,10.03,2.32c3.91,1.99,5.89,4.58,5.92,7.78
					c0.02,2.4-0.96,4.7-2.96,6.91C137.26,34.5,134.68,36.33,131.38,37.92z M130.92,27.66c0.25-2.23-1.7-2.79-3.74-2.78
					c-2.09,0.01-4.15,0.57-4.26,0.6l0.04,6.65C123.39,32.13,130.43,32.04,130.92,27.66"/>
			</g>
		</g>
		<g>
			<g>
				<path class="st5" d="M309.72,33.46c-0.83,0.78-1.74,1.55-2.72,2.3c-0.98,0.75-2.04,1.48-3.17,2.2l-2.37,2.22
					c2.27-1.43,4.23-2.93,5.9-4.5L309.72,33.46C309.72,33.46,309.72,33.46,309.72,33.46L309.72,33.46z"/>
				<path class="st5" d="M307.34,22.79c0,2.21-0.77,3.68-1.82,4.66l2.37-2.22c1.05-0.98,1.82-2.45,1.82-4.66
					c-0.01-3.04-2.23-3.72-4.22-3.71c-1.62,0-3,0.44-3.08,0.46l-2.37,2.22c0.07-0.02,1.46-0.45,3.08-0.46
					C305.11,19.07,307.33,19.75,307.34,22.79z"/>
				<polygon class="st5" points="295.21,9.66 292.84,11.88 291.53,51.38 302.09,50.64 304.46,48.42 293.89,49.16 				"/>
			</g>
			<g>
				<path class="st6" d="M316.68,18.7c0.07,7.37-4.22,13.78-12.86,19.26l0.63,10.46l-10.57,0.74l1.32-39.5
					c1.81-0.94,4.48-1.41,8.02-1.43c0.04,0,0.08,0,0.12,0c3.74-0.01,6.76,0.72,9.04,2.2C315.22,12.21,316.64,14.97,316.68,18.7z
					 M302.47,27.2c0.51,0,7.25-0.14,7.24-6.63c-0.01-3.04-2.23-3.72-4.22-3.71c-1.62,0-3,0.44-3.08,0.46L302.47,27.2"/>
			</g>
		</g>
		<g>
			<g>
				<polygon class="st3" points="332.66,25.18 322.11,25.79 319.75,28.01 330.3,27.4 				"/>
				<polygon class="st3" points="328.56,37.46 321.05,37.43 318.68,39.65 326.2,39.69 				"/>
				<polygon class="st3" points="314.51,16.92 312.14,19.14 312.59,57.05 329.38,54.27 331.75,52.05 314.96,54.83 				"/>
			</g>
			<g>
				<polygon class="st4" points="332.98,15.02 332.66,25.18 322.11,25.79 322.33,32.36 328.31,30.49 328.56,37.46 321.05,37.43 
					320.97,44.66 331.43,39.49 331.75,52.05 314.96,54.83 314.51,16.92 				"/>
			</g>
		</g>
		<g>
			<polygon class="st1" points="456.14,24.91 445.59,25.52 443.22,27.74 453.77,27.13 			"/>
			<polygon class="st1" points="452.04,37.19 444.52,37.16 442.16,39.38 449.68,39.41 			"/>
			<polygon class="st1" points="437.98,16.65 435.62,18.87 436.07,56.78 452.86,54 455.22,51.78 438.43,54.55 			"/>
		</g>
		<g>
			<polygon class="st2" points="456.46,14.75 456.14,24.91 445.59,25.52 445.81,32.08 451.79,30.23 452.04,37.19 444.52,37.16 
				444.44,44.4 454.91,39.22 455.22,51.78 438.43,54.55 437.98,16.65 			"/>
		</g>
		<g>
			<g>
				<path class="st7" d="M436.3,27.43l2.37-2.22c-0.97-0.4-2.03-0.6-3.16-0.59c-1.97,0.01-3.86,0.89-5.71,2.63l-2.37,2.22
					c1.85-1.74,3.74-2.61,5.71-2.63C434.27,26.83,435.33,27.03,436.3,27.43z"/>
				<path class="st7" d="M435.73,50.26c-1.66,0.66-3.31,0.99-4.95,1.01c-4.21,0.01-7.74-1.5-10.66-4.54
					c-3.01-3.11-4.54-7.03-4.58-11.73c-0.06-6.59,1.86-12.18,5.75-16.76c0.56-0.66,1.15-1.27,1.75-1.84l-2.37,2.22
					c-0.6,0.57-1.19,1.18-1.75,1.84c-3.89,4.58-5.81,10.17-5.75,16.76c0.04,4.7,1.58,8.62,4.58,11.73
					c2.92,3.04,6.45,4.55,10.66,4.54c1.64-0.01,3.29-0.34,4.95-1.01c1.13-0.45,2.11-0.99,2.94-1.62c0.28-0.21,0.54-0.43,0.78-0.66
					l2.37-2.22C438.47,48.9,437.23,49.66,435.73,50.26z"/>
			</g>
			<g>
				<path class="st8" d="M435.77,11.3c1.14,0,2.67,0.23,4.59,0.73l-1.69,13.18c-0.97-0.4-2.03-0.6-3.16-0.59
					c-2.34,0.02-4.56,1.25-6.74,3.68c-2.17,2.44-3.25,4.96-3.22,7.56c0.02,1.28,0.52,2.22,1.51,2.83c0.77,0.49,1.73,0.74,2.87,0.73
					c3.09-0.02,5.84-0.89,8.32-2.63l1.77,10.59c-1.05,1.19-2.48,2.15-4.3,2.87c-1.66,0.66-3.31,0.99-4.95,1.01
					c-4.21,0.01-7.74-1.5-10.66-4.54c-3.01-3.11-4.54-7.03-4.58-11.73c-0.06-6.59,1.86-12.18,5.75-16.76
					C425.2,13.66,430.04,11.34,435.77,11.3z"/>
			</g>
		</g>
		<g>
			<polygon class="st5" points="54.93,51.87 52.98,13.43 50.62,15.65 52.56,54.09 74.73,51.58 77.09,49.36 			"/>
			<g>
				<polygon class="st6" points="76.79,34.93 77.09,49.36 54.93,51.87 52.98,13.43 64.25,11.71 63.87,41.54 				"/>
			</g>
		</g>
		<g>
			<g>
				<polygon class="st1" points="22.48,32.86 19.13,33.41 16.77,35.64 20.11,35.08 				"/>
				<polygon class="st1" points="16.58,33.23 11.12,33.9 11.08,25.92 8.72,28.14 8.76,36.12 14.21,35.45 12.47,47.23 18.79,46.45 
					21.16,44.23 14.83,45.01 				"/>
			</g>
			<g>
				<polygon class="st2" points="23.11,25.47 22.48,32.86 19.13,33.41 21.16,44.23 14.83,45.01 16.58,33.23 11.12,33.9 11.08,25.92 
									"/>
			</g>
		</g>
		<g>
			<g>
				<polygon class="st1" points="34.81,31.95 34.56,26.13 32.19,28.35 32.45,34.17 				"/>
				<polygon class="st1" points="33.92,44.92 33.52,35.9 30.15,36.15 27.78,38.38 31.16,38.12 31.56,47.14 36.86,47.15 39.23,44.93 
									"/>
				<polygon class="st1" points="25.2,26.21 22.84,28.43 23.12,46.82 27.81,46.73 30.17,44.5 25.49,44.6 				"/>
			</g>
			<g>
				<polygon class="st2" points="29.9,25.5 29.96,32.13 34.81,31.95 34.56,26.13 39.64,26.04 39.23,44.93 33.92,44.92 33.52,35.9 
					30.15,36.15 30.17,44.5 25.49,44.6 25.2,26.21 				"/>
			</g>
		</g>
	</g>
	<g>
		<path class="st14" d="M66.69,74.31l-0.87,2.52h1.36v1.39h-4.39v-1.39h1.34l3.04-8.48h-1.31V67.1h5.68v1.24h-1.31l3,8.48h1.24v1.39
			h-4.36v-1.39h1.38l-0.82-2.52H66.69z M68.78,68.35h-0.15l-1.54,4.67h3.16L68.78,68.35z"/>
		<path class="st14" d="M82.27,73.41H80.9c-0.08-0.54-0.31-0.98-0.67-1.29c-0.34-0.29-0.82-0.46-1.38-0.46
			c-1.38,0-2.29,1.06-2.29,2.62c0,1.65,0.97,2.78,2.36,2.78c1.03,0,1.87-0.54,2.33-1.52l1.26,0.59c-0.67,1.52-1.95,2.32-3.63,2.32
			c-2.68,0-3.95-2.19-3.95-4.16c0-2.23,1.69-4.03,3.8-4.03c0.83,0,1.6,0.26,2.18,0.75v-0.52h1.38V73.41z"/>
		<path class="st14" d="M91.39,78.22h-2.69v-0.95c-0.97,0.79-1.64,1.08-2.49,1.08c-1.47,0-2.62-1.08-2.62-2.46
			c0-1.41,1.23-2.51,2.82-2.51c0.69,0,1.49,0.25,2.11,0.65v-1.01c0-1.1-0.8-1.49-1.72-1.49c-0.74,0-1.31,0.31-1.65,0.92l-1.46-0.39
			c0.65-1.2,1.77-1.8,3.34-1.8c2.26,0,3.03,1.13,3.03,2.37v4.24h1.33V78.22z M88.53,75.34c-0.65-0.51-1.34-0.77-2-0.77
			c-0.85,0-1.47,0.56-1.47,1.33c0,0.75,0.57,1.28,1.39,1.28c0.69,0,1.46-0.34,2.08-0.92V75.34z"/>
		<path class="st14" d="M101.78,78.22h-2.95v-1.15c-0.8,0.87-1.67,1.28-2.75,1.28c-1.75,0-3.8-1.2-3.8-3.96
			c0-2.34,1.65-4.13,3.83-4.13c1.05,0,1.95,0.43,2.72,1.24v-3.06h-1.47V67.1h3.01v9.77h1.41V78.22z M96.36,77.01
			c1.44,0,2.47-1.16,2.47-2.73c0-1.56-1.01-2.62-2.49-2.62c-1.38,0-2.42,1.15-2.42,2.69C93.92,75.93,94.92,77.01,96.36,77.01z"/>
		<path class="st14" d="M104.09,74.73c0.23,1.51,1.21,2.37,2.65,2.37c1,0,1.93-0.44,2.51-1.26l1.34,0.59
			c-0.83,1.29-2.23,2.01-3.88,2.01c-2.5,0-4.31-1.7-4.31-4.09c0-2.5,2.05-4.09,4.06-4.09c2.14,0,4.13,1.64,4.13,4.47H104.09z
			 M109.03,73.62c-0.25-1.23-1.33-2.13-2.54-2.13c-1.21,0-2.13,0.83-2.36,2.13H109.03z"/>
		<path class="st14" d="M113.06,71.84h-1.29v-1.34h2.83v0.97c0.9-0.72,1.77-1.1,2.62-1.1c0.87,0,1.54,0.42,1.87,1.21
			c1.11-0.87,1.9-1.21,2.78-1.21c1.28,0,2.06,0.79,2.06,2.13v4.39h1.33v1.34h-2.86v-5.39c0-0.75-0.34-1.13-0.93-1.13
			c-0.62,0-1.42,0.38-2.19,1.01v4.16h1.33v1.34h-2.86v-5.35c0-0.82-0.46-1.1-0.95-1.1c-0.56,0-1.24,0.3-2.18,0.95v4.16h1.33v1.34
			h-4.27v-1.34h1.41V71.84z"/>
		<path class="st14" d="M126.78,71.84h-1.29v-1.34h3.83v1.34h-0.92l1.67,4.27l1.64-4.27h-1.03v-1.34h3.75v1.34h-1.15l-3.83,9.86
			h-2.59v-1.34h1.52l0.93-2.28L126.78,71.84z"/>
		<path class="st14" d="M143.37,70.26c2.32,0,4.06,1.75,4.06,4.09c0,2.34-1.75,4.09-4.08,4.09c-2.33,0-4.06-1.75-4.06-4.09
			C139.29,72.02,141.02,70.26,143.37,70.26z M143.35,76.98c1.39,0,2.44-1.11,2.44-2.62c0-1.49-1.05-2.62-2.44-2.62
			c-1.38,0-2.42,1.13-2.42,2.62C140.93,75.86,141.97,76.98,143.35,76.98z"/>
		<path class="st14" d="M149.72,71.84h-1.13v-1.34h1.13V69.1c0-1.54,0.97-2.23,2.06-2.23c1.1,0,1.82,0.64,2,1.78l-1.34,0.21
			c-0.05-0.51-0.24-0.75-0.59-0.75c-0.38,0-0.59,0.31-0.59,0.84v1.54h1.31v1.34h-1.31v5.04h1.49v1.34h-4.13v-1.34h1.1V71.84z"/>
		<path class="st14" d="M158.82,68.5h-1.44V67.1h9.22v3.34h-1.38V68.5h-4.73v3.31h4.13v1.39h-4.13v3.63h4.73V74.8h1.38v3.42h-9.22
			v-1.39h1.44V68.5z"/>
		<path class="st14" d="M175.67,78.22h-2.69v-0.95c-0.97,0.79-1.64,1.08-2.49,1.08c-1.47,0-2.62-1.08-2.62-2.46
			c0-1.41,1.23-2.51,2.82-2.51c0.69,0,1.49,0.25,2.11,0.65v-1.01c0-1.1-0.8-1.49-1.72-1.49c-0.74,0-1.31,0.31-1.65,0.92l-1.46-0.39
			c0.65-1.2,1.77-1.8,3.34-1.8c2.26,0,3.03,1.13,3.03,2.37v4.24h1.33V78.22z M172.8,75.34c-0.65-0.51-1.34-0.77-2-0.77
			c-0.85,0-1.47,0.56-1.47,1.33c0,0.75,0.57,1.28,1.39,1.28c0.69,0,1.46-0.34,2.08-0.92V75.34z"/>
		<path class="st14" d="M177.77,71.84h-1.56v-1.34h2.77v1.74h0.03c0.49-1.29,1.47-1.87,2.44-1.87h1v1.54h-0.82
			c-1.78,0-2.32,1-2.32,2.77v2.21h1.67v1.34h-4.73v-1.34h1.52V71.84z"/>
		<path class="st14" d="M184.48,68.45h-1.38V67.1h2.91v9.77h1.2v1.34h-4.14v-1.34h1.41V68.45z"/>
		<path class="st14" d="M188.88,71.84h-1.29v-1.34h3.83v1.34h-0.92l1.67,4.27l1.64-4.27h-1.03v-1.34h3.75v1.34h-1.15l-3.83,9.86
			h-2.59v-1.34h1.52l0.93-2.28L188.88,71.84z"/>
		<path class="st14" d="M202.67,68.5h-1.44V67.1h9.22v3.34h-1.38V68.5h-4.73v3.31h4.13v1.39h-4.13v3.63h4.73V74.8h1.38v3.42h-9.22
			v-1.39h1.44V68.5z"/>
		<path class="st14" d="M221.2,78.22h-2.95v-1.15c-0.8,0.87-1.67,1.28-2.75,1.28c-1.75,0-3.8-1.2-3.8-3.96
			c0-2.34,1.65-4.13,3.83-4.13c1.05,0,1.95,0.43,2.72,1.24v-3.06h-1.47V67.1h3.01v9.77h1.41V78.22z M215.78,77.01
			c1.44,0,2.47-1.16,2.47-2.73c0-1.56-1.01-2.62-2.49-2.62c-1.38,0-2.42,1.15-2.42,2.69C213.35,75.93,214.34,77.01,215.78,77.01z"/>
		<path class="st14" d="M230.29,78.22h-2.87v-0.88c-0.87,0.67-1.72,1.01-2.52,1.01c-1.41,0-2.15-0.77-2.15-2.39v-4.13h-1.1v-1.34
			h2.64v5.39c0,0.79,0.33,1.13,0.92,1.13c0.64,0,1.52-0.38,2.21-0.98v-4.19h-1.33v-1.34h2.86v6.39h1.33V78.22z"/>
		<path class="st14" d="M238.38,73.41h-1.38c-0.08-0.54-0.31-0.98-0.67-1.29c-0.34-0.29-0.82-0.46-1.38-0.46
			c-1.38,0-2.29,1.06-2.29,2.62c0,1.65,0.97,2.78,2.36,2.78c1.03,0,1.87-0.54,2.33-1.52l1.26,0.59c-0.67,1.52-1.95,2.32-3.63,2.32
			c-2.68,0-3.95-2.19-3.95-4.16c0-2.23,1.69-4.03,3.8-4.03c0.83,0,1.6,0.26,2.18,0.75v-0.52h1.38V73.41z"/>
		<path class="st14" d="M247.5,78.22h-2.69v-0.95c-0.97,0.79-1.64,1.08-2.49,1.08c-1.47,0-2.62-1.08-2.62-2.46
			c0-1.41,1.23-2.51,2.82-2.51c0.69,0,1.49,0.25,2.11,0.65v-1.01c0-1.1-0.8-1.49-1.72-1.49c-0.74,0-1.31,0.31-1.65,0.92l-1.46-0.39
			c0.65-1.2,1.77-1.8,3.34-1.8c2.26,0,3.03,1.13,3.03,2.37v4.24h1.33V78.22z M244.63,75.34c-0.65-0.51-1.34-0.77-2-0.77
			c-0.85,0-1.47,0.56-1.47,1.33c0,0.75,0.57,1.28,1.39,1.28c0.69,0,1.46-0.34,2.08-0.92V75.34z"/>
		<path class="st14" d="M248.17,70.49h1v-1.2l1.54-1.39v2.59h1.42v1.34h-1.42v4.47c0,0.75,0.67,0.72,1.42,0.46v1.38
			c-0.36,0.11-0.77,0.21-1.13,0.21c-1.08,0-1.83-0.49-1.83-1.83v-4.68h-1V70.49z"/>
		<path class="st14" d="M254.25,71.84h-1.23v-1.34h2.77v6.39h1.23v1.34h-3.99v-1.34h1.23V71.84z M255.9,67.86
			c0,0.51-0.41,0.92-0.92,0.92c-0.51,0-0.92-0.41-0.92-0.92c0-0.51,0.41-0.92,0.92-0.92C255.49,66.94,255.9,67.35,255.9,67.86z"/>
		<path class="st14" d="M262.11,70.26c2.32,0,4.06,1.75,4.06,4.09c0,2.34-1.75,4.09-4.08,4.09c-2.33,0-4.06-1.75-4.06-4.09
			C258.03,72.02,259.76,70.26,262.11,70.26z M262.09,76.98c1.39,0,2.44-1.11,2.44-2.62c0-1.49-1.05-2.62-2.44-2.62
			c-1.38,0-2.42,1.13-2.42,2.62C259.67,75.86,260.71,76.98,262.09,76.98z"/>
		<path class="st14" d="M270.13,71.43c1.03-0.75,1.82-1.06,2.64-1.06c1.1,0,2.03,0.67,2.03,2.19v4.32h1.33v1.34h-2.86v-5.06
			c0-0.98-0.28-1.41-0.9-1.41s-1.44,0.36-2.23,0.98v4.14h1.33v1.34h-4.19v-1.34h1.33v-5.04h-1.36v-1.34h2.9V71.43z"/>
	</g>
</g>
</svg>
